<svg width="484" height="324" viewBox="0 0 484 324" fill="none" xmlns="http://www.w3.org/2000/svg">
<g clip-path="url(#clip0_18_41)">
<path d="M108.093 323.975C101.465 323.975 95.6223 319.624 93.7225 313.274L5.7738 19.2993C2.89523 9.6775 10.1013 0 20.1445 0H95.9067C102.698 0 108.642 4.56309 110.397 11.1239L139.714 120.723C143.737 135.763 165.179 135.474 168.795 120.33L173.924 98.8476C177.528 83.7561 198.87 83.3973 202.978 98.3592L228.65 191.845C229.361 194.434 229.364 197.168 228.659 199.759L197.837 312.917C196.058 319.445 190.13 323.975 183.364 323.975H108.093ZM292.445 323.975C285.689 323.975 279.767 319.458 277.98 312.943L197.342 18.968C194.723 9.42091 201.908 0 211.807 0H289.384C296.235 0 302.215 4.641 303.915 11.277L379.236 305.252C381.668 314.74 374.501 323.975 364.706 323.975H292.445ZM410.774 253.78C406.562 268.501 385.595 268.192 381.817 253.354L352.494 138.179C351.883 135.778 351.876 133.263 352.473 130.859L382.18 11.3807C383.843 4.69405 389.847 0 396.737 0H463.504C473.472 0 480.668 9.54328 477.925 19.1269L410.774 253.78Z" fill="url(#paint0_linear_18_41)"/>
</g>
<defs>
<linearGradient id="paint0_linear_18_41" x1="0" y1="161.987" x2="483.399" y2="161.987" gradientUnits="userSpaceOnUse">
<stop stop-color="#009DFF"/>
<stop offset="0.6" stop-color="#00FFAE"/>
<stop offset="1" stop-color="#009DFF"/>
</linearGradient>
<clipPath id="clip0_18_41">
<rect width="483.399" height="324" fill="white"/>
</clipPath>
</defs>
</svg>
