<svg width="2130" height="324" viewBox="0 0 2130 324" fill="none" xmlns="http://www.w3.org/2000/svg">
<g clip-path="url(#clip0_18_39)">
<path d="M108.093 323.975C101.465 323.975 95.6223 319.624 93.7225 313.274L5.7738 19.2993C2.89523 9.6775 10.1013 0 20.1445 0H95.9067C102.698 0 108.642 4.56309 110.397 11.1239L139.714 120.723C143.737 135.763 165.179 135.474 168.795 120.33L173.924 98.8476C177.528 83.7561 198.87 83.3973 202.978 98.3592L228.65 191.845C229.361 194.434 229.364 197.168 228.659 199.759L197.837 312.917C196.058 319.445 190.13 323.975 183.364 323.975H108.093ZM292.445 323.975C285.689 323.975 279.767 319.458 277.98 312.943L197.342 18.968C194.723 9.42091 201.908 0 211.807 0H289.384C296.235 0 302.215 4.641 303.915 11.277L379.236 305.252C381.668 314.74 374.501 323.975 364.706 323.975H292.445ZM410.774 253.78C406.562 268.501 385.595 268.192 381.817 253.354L352.494 138.179C351.883 135.778 351.876 133.263 352.473 130.859L382.18 11.3807C383.843 4.69405 389.847 0 396.737 0H463.504C473.472 0 480.668 9.54328 477.925 19.1269L410.774 253.78Z" fill="url(#paint0_linear_18_39)"/>
<path d="M729.307 162.273C729.307 178.134 726.3 191.629 720.287 202.756C714.321 213.883 706.177 222.382 695.855 228.253C685.58 234.077 674.027 236.989 661.196 236.989C648.27 236.989 636.67 234.053 626.395 228.182C616.12 222.311 608 213.812 602.034 202.685C596.068 191.558 593.085 178.087 593.085 162.273C593.085 146.411 596.068 132.917 602.034 121.79C608 110.663 616.12 102.187 626.395 96.3636C636.67 90.4924 648.27 87.5568 661.196 87.5568C674.027 87.5568 685.58 90.4924 695.855 96.3636C706.177 102.187 714.321 110.663 720.287 121.79C726.3 132.917 729.307 146.411 729.307 162.273ZM698.128 162.273C698.128 151.998 696.589 143.333 693.511 136.278C690.481 129.223 686.196 123.873 680.656 120.227C675.116 116.581 668.63 114.759 661.196 114.759C653.762 114.759 647.276 116.581 641.736 120.227C636.196 123.873 631.887 129.223 628.81 136.278C625.779 143.333 624.264 151.998 624.264 162.273C624.264 172.547 625.779 181.212 628.81 188.267C631.887 195.322 636.196 200.672 641.736 204.318C647.276 207.964 653.762 209.787 661.196 209.787C668.63 209.787 675.116 207.964 680.656 204.318C686.196 200.672 690.481 195.322 693.511 188.267C696.589 181.212 698.128 172.547 698.128 162.273ZM751.519 275.909V125.909H781.349V144.233H782.698C784.024 141.297 785.942 138.314 788.451 135.284C791.008 132.206 794.322 129.65 798.394 127.614C802.513 125.53 807.627 124.489 813.735 124.489C821.69 124.489 829.029 126.572 835.752 130.739C842.476 134.858 847.85 141.084 851.874 149.418C855.899 157.704 857.911 168.097 857.911 180.597C857.911 192.765 855.946 203.04 852.016 211.42C848.134 219.754 842.831 226.075 836.107 230.384C829.431 234.645 821.95 236.776 813.664 236.776C807.793 236.776 802.798 235.805 798.678 233.864C794.606 231.922 791.268 229.484 788.664 226.548C786.06 223.565 784.071 220.559 782.698 217.528H781.775V275.909H751.519ZM781.136 180.455C781.136 186.941 782.035 192.599 783.835 197.429C785.634 202.259 788.238 206.023 791.647 208.722C795.056 211.373 799.199 212.699 804.076 212.699C809 212.699 813.167 211.349 816.576 208.651C819.985 205.904 822.566 202.116 824.317 197.287C826.117 192.41 827.016 186.799 827.016 180.455C827.016 174.157 826.14 168.617 824.388 163.835C822.637 159.053 820.056 155.312 816.647 152.614C813.238 149.915 809.048 148.565 804.076 148.565C799.152 148.565 794.985 149.867 791.576 152.472C788.214 155.076 785.634 158.769 783.835 163.551C782.035 168.333 781.136 173.968 781.136 180.455ZM927.798 237.131C916.576 237.131 906.917 234.858 898.82 230.312C890.771 225.72 884.568 219.233 880.212 210.852C875.856 202.424 873.678 192.457 873.678 180.952C873.678 169.73 875.856 159.882 880.212 151.406C884.568 142.931 890.7 136.326 898.607 131.591C906.562 126.856 915.889 124.489 926.59 124.489C933.787 124.489 940.487 125.649 946.69 127.969C952.94 130.241 958.385 133.674 963.025 138.267C967.712 142.86 971.358 148.636 973.962 155.597C976.567 162.509 977.869 170.606 977.869 179.886V188.196H885.752V169.446H949.388C949.388 165.09 948.442 161.231 946.548 157.869C944.654 154.508 942.026 151.88 938.664 149.986C935.35 148.045 931.491 147.074 927.087 147.074C922.495 147.074 918.423 148.139 914.871 150.27C911.368 152.353 908.621 155.17 906.633 158.722C904.644 162.225 903.626 166.132 903.579 170.44V188.267C903.579 193.665 904.573 198.329 906.562 202.259C908.598 206.188 911.462 209.219 915.156 211.349C918.849 213.48 923.228 214.545 928.295 214.545C931.656 214.545 934.734 214.072 937.528 213.125C940.321 212.178 942.712 210.758 944.701 208.864C946.69 206.97 948.205 204.65 949.246 201.903L977.229 203.75C975.809 210.473 972.897 216.345 968.494 221.364C964.138 226.335 958.503 230.218 951.59 233.011C944.725 235.758 936.794 237.131 927.798 237.131ZM1027.87 171.932V235H997.613V125.909H1026.45V145.156H1027.73C1030.14 138.812 1034.19 133.793 1039.87 130.099C1045.55 126.359 1052.44 124.489 1060.54 124.489C1068.11 124.489 1074.72 126.146 1080.35 129.46C1085.99 132.775 1090.37 137.509 1093.49 143.665C1096.62 149.773 1098.18 157.064 1098.18 165.54V235H1067.93V170.938C1067.97 164.261 1066.27 159.053 1062.81 155.312C1059.36 151.525 1054.6 149.631 1048.54 149.631C1044.46 149.631 1040.87 150.507 1037.74 152.259C1034.66 154.01 1032.25 156.567 1030.5 159.929C1028.79 163.243 1027.92 167.244 1027.87 171.932ZM1168.88 235V89.5455H1227.12C1237.82 89.5455 1246.75 91.1316 1253.9 94.304C1261.05 97.4763 1266.42 101.88 1270.02 107.514C1273.62 113.101 1275.42 119.541 1275.42 126.832C1275.42 132.514 1274.28 137.509 1272.01 141.818C1269.74 146.08 1266.61 149.583 1262.63 152.33C1258.7 155.028 1254.21 156.946 1249.14 158.082V159.503C1254.68 159.74 1259.86 161.302 1264.69 164.19C1269.57 167.079 1273.52 171.127 1276.55 176.335C1279.58 181.496 1281.1 187.652 1281.1 194.801C1281.1 202.519 1279.18 209.408 1275.35 215.469C1271.56 221.482 1265.95 226.241 1258.51 229.744C1251.08 233.248 1241.92 235 1231.03 235H1168.88ZM1199.64 209.858H1224.71C1233.28 209.858 1239.53 208.224 1243.46 204.957C1247.39 201.643 1249.35 197.24 1249.35 191.747C1249.35 187.723 1248.38 184.171 1246.44 181.094C1244.5 178.016 1241.73 175.601 1238.13 173.849C1234.58 172.098 1230.34 171.222 1225.42 171.222H1199.64V209.858ZM1199.64 150.412H1222.44C1226.65 150.412 1230.39 149.678 1233.66 148.21C1236.97 146.695 1239.58 144.564 1241.47 141.818C1243.41 139.072 1244.38 135.781 1244.38 131.946C1244.38 126.69 1242.51 122.453 1238.77 119.233C1235.08 116.013 1229.82 114.403 1223 114.403H1199.64V150.412ZM1349.83 237.131C1338.8 237.131 1329.26 234.787 1321.21 230.099C1313.21 225.365 1307.03 218.783 1302.67 210.355C1298.32 201.88 1296.14 192.055 1296.14 180.881C1296.14 169.612 1298.32 159.763 1302.67 151.335C1307.03 142.86 1313.21 136.278 1321.21 131.591C1329.26 126.856 1338.8 124.489 1349.83 124.489C1360.86 124.489 1370.38 126.856 1378.38 131.591C1386.43 136.278 1392.64 142.86 1396.99 151.335C1401.35 159.763 1403.53 169.612 1403.53 180.881C1403.53 192.055 1401.35 201.88 1396.99 210.355C1392.64 218.783 1386.43 225.365 1378.38 230.099C1370.38 234.787 1360.86 237.131 1349.83 237.131ZM1349.97 213.693C1354.99 213.693 1359.18 212.273 1362.55 209.432C1365.91 206.544 1368.44 202.614 1370.14 197.642C1371.9 192.67 1372.77 187.012 1372.77 180.668C1372.77 174.323 1371.9 168.665 1370.14 163.693C1368.44 158.722 1365.91 154.792 1362.55 151.903C1359.18 149.015 1354.99 147.571 1349.97 147.571C1344.91 147.571 1340.65 149.015 1337.19 151.903C1333.78 154.792 1331.2 158.722 1329.45 163.693C1327.74 168.665 1326.89 174.323 1326.89 180.668C1326.89 187.012 1327.74 192.67 1329.45 197.642C1331.2 202.614 1333.78 206.544 1337.19 209.432C1340.65 212.273 1344.91 213.693 1349.97 213.693ZM1472.49 237.131C1461.46 237.131 1451.92 234.787 1443.87 230.099C1435.86 225.365 1429.69 218.783 1425.33 210.355C1420.97 201.88 1418.8 192.055 1418.8 180.881C1418.8 169.612 1420.97 159.763 1425.33 151.335C1429.69 142.86 1435.86 136.278 1443.87 131.591C1451.92 126.856 1461.46 124.489 1472.49 124.489C1483.52 124.489 1493.04 126.856 1501.04 131.591C1509.09 136.278 1515.29 142.86 1519.65 151.335C1524 159.763 1526.18 169.612 1526.18 180.881C1526.18 192.055 1524 201.88 1519.65 210.355C1515.29 218.783 1509.09 225.365 1501.04 230.099C1493.04 234.787 1483.52 237.131 1472.49 237.131ZM1472.63 213.693C1477.65 213.693 1481.84 212.273 1485.2 209.432C1488.56 206.544 1491.1 202.614 1492.8 197.642C1494.55 192.67 1495.43 187.012 1495.43 180.668C1495.43 174.323 1494.55 168.665 1492.8 163.693C1491.1 158.722 1488.56 154.792 1485.2 151.903C1481.84 149.015 1477.65 147.571 1472.63 147.571C1467.56 147.571 1463.3 149.015 1459.85 151.903C1456.44 154.792 1453.86 158.722 1452.11 163.693C1450.4 168.665 1449.55 174.323 1449.55 180.668C1449.55 187.012 1450.4 192.67 1452.11 197.642C1453.86 202.614 1456.44 206.544 1459.85 209.432C1463.3 212.273 1467.56 213.693 1472.63 213.693ZM1573.27 203.608L1573.34 167.315H1577.74L1612.69 125.909H1647.42L1600.47 180.739H1593.3L1573.27 203.608ZM1545.86 235V89.5455H1576.11V235H1545.86ZM1614.04 235L1581.93 187.486L1602.11 166.108L1649.48 235H1614.04ZM1741.86 235L1700.24 89.5455H1733.83L1757.91 190.611H1759.12L1785.68 89.5455H1814.45L1840.94 190.824H1842.22L1866.29 89.5455H1899.89L1858.27 235H1828.29L1800.6 139.901H1799.46L1771.83 235H1741.86ZM1915.78 235V125.909H1946.03V235H1915.78ZM1930.98 111.847C1926.48 111.847 1922.62 110.355 1919.4 107.372C1916.23 104.342 1914.64 100.72 1914.64 96.5057C1914.64 92.339 1916.23 88.7642 1919.4 85.7812C1922.62 82.7509 1926.48 81.2358 1930.98 81.2358C1935.47 81.2358 1939.31 82.7509 1942.48 85.7812C1945.7 88.7642 1947.31 92.339 1947.31 96.5057C1947.31 100.72 1945.7 104.342 1942.48 107.372C1939.31 110.355 1935.47 111.847 1930.98 111.847ZM1997.68 203.608L1997.75 167.315H2002.16L2037.1 125.909H2071.83L2024.89 180.739H2017.71L1997.68 203.608ZM1970.27 235V89.5455H2000.52V235H1970.27ZM2038.45 235L2006.35 187.486L2026.52 166.108L2073.89 235H2038.45ZM2086.68 235V125.909H2116.93V235H2086.68ZM2101.87 111.847C2097.38 111.847 2093.52 110.355 2090.3 107.372C2087.13 104.342 2085.54 100.72 2085.54 96.5057C2085.54 92.339 2087.13 88.7642 2090.3 85.7812C2093.52 82.7509 2097.38 81.2358 2101.87 81.2358C2106.37 81.2358 2110.21 82.7509 2113.38 85.7812C2116.6 88.7642 2118.21 92.339 2118.21 96.5057C2118.21 100.72 2116.6 104.342 2113.38 107.372C2110.21 110.355 2106.37 111.847 2101.87 111.847Z" fill="url(#paint1_linear_18_39)"/>
</g>
<defs>
<linearGradient id="paint0_linear_18_39" x1="0" y1="161.987" x2="483.399" y2="161.987" gradientUnits="userSpaceOnUse">
<stop stop-color="#009DFF"/>
<stop offset="0.6" stop-color="#00FFAE"/>
<stop offset="1" stop-color="#009DFF"/>
</linearGradient>
<linearGradient id="paint1_linear_18_39" x1="583" y1="162" x2="2130" y2="162" gradientUnits="userSpaceOnUse">
<stop stop-color="#009DFF"/>
<stop offset="1" stop-color="#00FFAE"/>
</linearGradient>
<clipPath id="clip0_18_39">
<rect width="2130" height="324" fill="white"/>
</clipPath>
</defs>
</svg>
